<?xml version="1.0" encoding="utf-8"?>
<svg version="1.1" id="Layer_1" xmlns="http://www.w3.org/2000/svg" x="0px" y="0px" width="100%" viewBox="228.623 210.985 555.75 604.365" enable-background="new 0 0 1024 1024">
  <path opacity="1.000000" stroke="none" d=" M413.350159,632.999939 C413.353760,639.666321 413.180023,645.839050 413.399323,651.997803 C413.789001,662.940430 423.282043,669.399902 432.048462,664.873596 C436.317413,662.669495 438.303162,659.003662 438.594849,654.394836 C438.794464,651.240112 438.577545,648.061340 438.686035,644.898132 C438.964417,636.779236 444.928162,630.723022 452.537384,630.739563 C460.408936,630.756714 466.127197,636.500122 466.301605,644.827820 C466.448120,651.824646 466.291565,658.827209 466.365173,665.826294 C466.454071,674.277832 471.329224,679.740356 478.726440,679.819092 C486.407928,679.900940 491.484283,674.491150 491.615570,665.795105 C491.741364,657.463989 491.585297,649.128845 491.666412,640.796631 C491.751373,632.069885 497.218658,626.244080 505.328156,626.060425 C513.164856,625.882996 518.585266,631.174255 519.409363,639.778870 C520.604065,652.252747 519.682800,664.755554 519.935852,677.242310 C520.028442,681.808838 520.328064,686.326477 524.073242,689.620544 C527.766235,692.868774 531.822876,694.809631 536.841797,692.577820 C542.419128,690.097778 545.497986,685.787659 545.589783,679.748474 C545.764587,668.251465 545.504150,656.747498 545.701782,645.251221 C545.893982,634.073608 556.181580,627.665527 565.947937,632.409119 C571.022888,634.873840 572.993652,639.265625 573.303833,644.552490 C573.498718,647.874878 573.269836,651.219971 573.389465,654.549255 C573.582275,659.916016 576.353882,663.604187 581.170959,665.782471 C585.818848,667.884216 589.593689,666.151428 592.900879,662.860168 C597.747681,658.036621 602.357483,652.992615 605.884399,647.095825 C608.578430,642.591553 608.427612,638.318970 604.537415,634.371704 C591.672668,621.317993 578.993896,608.078308 565.988220,595.167358 C559.200806,588.429321 554.344910,589.041687 548.078857,596.551514 C543.296265,602.283447 536.581421,603.730103 530.716797,600.291992 C525.265442,597.096313 523.163940,590.315979 525.740173,583.630432 C526.507202,581.639771 527.498901,579.602478 528.872009,578.002075 C534.288879,571.688660 539.656250,565.301392 545.493469,559.387268 C554.107544,550.659851 564.105713,550.713806 572.646973,559.491943 C586.125427,573.344177 599.361145,587.432495 612.723572,601.397949 C614.098633,602.835022 615.502502,604.309509 617.123718,605.433960 C622.506653,609.167603 627.028442,608.583191 631.072327,603.441711 C635.017334,598.425964 637.680115,592.645020 639.872375,586.690430 C646.638855,568.311951 650.751587,549.470581 650.706726,529.728760 C650.562012,466.064636 650.649536,402.399963 650.657166,338.735504 C650.658020,331.811554 652.849121,328.231293 658.277588,326.110382 C664.165588,323.809906 670.709717,325.211456 674.806580,329.524628 C677.420837,332.276886 677.651550,335.816040 678.194946,339.234436 C678.453796,340.862976 678.297913,342.560394 678.297974,344.226624 C678.301514,447.223022 678.301086,550.219421 678.304138,653.215820 C678.304321,658.377686 678.464966,663.550781 677.309265,668.633972 C676.270325,673.203796 674.440247,677.296631 669.528809,678.795105 C664.694763,680.270020 661.190796,677.623718 658.082886,674.414001 C653.186462,669.357178 649.929260,663.792969 650.535034,656.197510 C651.113586,648.944214 650.659851,641.608643 650.659851,634.413513 C648.255859,633.596069 647.500854,635.171753 646.623230,636.231384 C641.525269,642.386658 636.459167,648.569092 631.445312,654.793091 C627.172485,660.097107 627.215210,662.782898 632.075684,667.748474 C640.466797,676.320984 649.007263,684.747437 657.502441,693.217712 C673.902527,709.569641 690.325073,725.899109 706.715759,742.260437 C711.835266,747.370728 711.454468,751.388916 705.725403,755.923767 C696.987488,762.840088 682.223877,763.974304 672.725647,755.183350 C654.124207,737.967285 636.709106,719.574768 618.584290,701.892212 C615.364136,698.750671 612.352600,695.384644 609.018250,692.373108 C601.823059,685.874634 593.718628,683.136414 584.223206,687.027527 C577.413147,689.818115 573.404907,695.515686 573.371399,702.881348 C573.308533,716.713989 573.397156,730.547241 573.324524,744.379761 C573.293579,750.276001 571.781982,755.673096 566.531921,759.145447 C557.306641,765.246948 546.169556,758.594971 545.721497,746.594971 C545.441833,739.105469 545.670166,731.597412 545.646362,724.097778 C545.617126,714.868530 540.929749,709.225708 533.238708,709.121826 C525.651428,709.019287 520.280151,714.526123 520.157715,723.589050 C519.885376,743.751038 520.008240,763.918457 519.973083,784.083618 C519.966370,787.923401 519.763062,791.745972 518.422974,795.389404 C515.994568,801.991577 508.769135,806.320190 502.226593,805.162415 C495.331665,803.942322 491.672028,799.123291 491.662903,791.021179 C491.633179,764.688782 491.635712,738.356323 491.656647,712.023926 C491.660980,706.558350 489.665070,702.313477 484.611237,699.810486 C479.755798,697.405762 475.190094,698.173706 471.044098,701.386475 C467.480865,704.147766 466.327057,708.063538 466.336090,712.442322 C466.360107,724.108521 466.373993,735.774963 466.330872,747.441040 C466.298798,756.122742 460.974915,761.347290 452.281891,761.349487 C443.909698,761.351562 438.743256,756.222778 438.686493,747.529114 C438.591858,733.030212 438.676117,718.530273 438.644012,704.030823 C438.626862,696.289917 433.783630,690.683350 427.024323,690.461365 C419.664612,690.219727 413.500671,696.313293 413.370667,704.080505 C413.281464,709.412231 413.445740,714.749084 413.314880,720.079102 C413.139435,727.223328 408.827332,731.953674 401.808746,732.959229 C395.637787,733.843384 388.400879,729.152405 386.742401,723.065247 C385.999390,720.338135 385.678558,717.545471 385.681702,714.677124 C385.723236,676.678528 385.724792,638.679749 385.649200,600.681213 C385.642792,597.462341 386.210754,594.359619 386.954651,591.325134 C388.642944,584.438110 394.731689,580.768372 402.305206,581.706055 C408.621887,582.488159 413.258453,587.708923 413.313324,594.501465 C413.415558,607.166931 413.347260,619.833740 413.350159,632.999939 z" style=""/>
  <path opacity="1.000000" stroke="none" d=" M519.979248,244.068512 C519.971802,288.536499 519.978210,332.514526 519.935242,376.492493 C519.931824,379.979919 519.660034,383.472778 519.386292,386.953156 C518.634583,396.509888 513.574463,401.562408 505.075378,401.339722 C497.762390,401.148132 491.933868,394.687347 491.713074,386.045929 C491.496063,377.555542 491.653595,369.055603 491.641998,360.559875 C491.636261,356.366821 490.374207,352.634644 487.107941,349.897797 C483.283264,346.693115 479.038971,345.421082 474.154358,347.625702 C469.265656,349.832153 466.532013,353.547974 466.402252,358.856537 C466.223206,366.181915 466.369110,373.514862 466.333527,380.844330 C466.286865,390.455780 460.983154,396.412018 452.569305,396.360504 C444.510925,396.311157 438.770996,389.861053 438.662323,380.705902 C438.630676,378.040924 438.682343,375.375031 438.652374,372.710022 C438.579620,366.241638 434.585907,361.460632 428.451355,360.460144 C422.339752,359.463409 416.291229,363.192627 414.419250,369.147552 C413.564178,371.867706 413.315826,374.656433 413.324036,377.517517 C413.375763,395.508423 413.368408,413.499573 413.340698,431.490570 C413.327515,440.072632 408.787689,445.366058 400.867920,446.171875 C393.953369,446.875366 388.157135,442.257782 386.402863,434.531281 C386.001923,432.765320 385.741669,430.924164 385.739685,429.117249 C385.695770,388.970612 385.666046,348.823914 385.709106,308.677307 C385.721954,296.688782 394.970734,290.259583 405.436005,294.796509 C410.540863,297.009613 413.190308,300.949188 413.311127,306.463348 C413.435150,312.124634 413.190277,317.796967 413.412781,323.452393 C413.645966,329.378113 416.355652,333.913513 421.852722,336.565613 C426.353638,338.737091 430.335663,337.461090 433.884949,334.530975 C437.470551,331.570770 438.665710,327.491425 438.658112,322.945465 C438.634369,308.785919 438.630737,294.626190 438.669464,280.466675 C438.694092,271.455353 444.664673,264.691467 452.487274,264.696625 C460.604736,264.701965 466.302063,271.106323 466.332703,280.359802 C466.369629,291.520782 466.314392,302.682098 466.354889,313.843048 C466.386810,322.636505 471.770660,328.776855 479.184662,328.589539 C486.424347,328.406616 491.632568,322.309052 491.640564,313.862305 C491.664642,288.375000 491.626526,262.887665 491.663055,237.400391 C491.672424,230.848282 493.561768,225.252838 500.079224,222.253159 C508.331024,218.455246 517.957581,223.557632 519.283936,232.632675 C519.810913,236.238205 519.765320,239.927414 519.979248,244.068512 z" style=""/>
  <path opacity="1.000000" stroke="none" d=" M701.650024,453.999878 C701.649597,429.502808 701.931213,405.501038 701.527954,381.510742 C701.332092,369.858490 708.155884,366.004822 714.315857,365.750702 C722.601929,365.408813 728.072876,371.904846 728.083191,381.916870 C728.113403,411.079865 728.067627,440.242920 728.080627,469.405945 C728.083679,476.403442 728.039978,483.407043 728.309937,490.396545 C728.554077,496.715057 732.511658,501.318573 737.511597,501.674011 C742.640076,502.038605 746.642456,498.880890 747.993774,492.299988 C749.609985,484.428680 748.370178,476.365051 748.659668,468.391235 C748.866760,462.687775 751.565491,458.598572 756.457336,456.760254 C765.355774,453.416321 774.273743,460.378296 774.308838,470.936981 C774.393616,496.433563 774.337830,521.930603 774.337036,547.427490 C774.336975,551.426941 774.440491,555.430542 774.295227,559.424866 C774.106689,564.608276 771.745239,568.701721 767.364624,571.467041 C758.246521,577.222961 749.142090,571.684814 748.718445,560.016235 C748.476685,553.358826 748.786194,546.682312 748.593567,540.021729 C748.467529,535.665100 746.915405,531.966370 742.701294,529.745911 C739.013611,527.802856 735.696411,528.412720 732.342102,530.456787 C728.501465,532.797119 728.092102,536.501282 728.094910,540.466492 C728.113708,566.629883 728.103333,592.793274 728.102722,618.956665 C728.102478,627.788818 728.291565,636.625977 728.055176,645.451782 C727.763489,656.342041 720.179260,662.232910 710.583618,659.350403 C705.431702,657.802795 702.219421,653.925415 701.723206,648.473633 C701.557617,646.654297 701.650024,644.810120 701.649963,642.977295 C701.648193,580.151489 701.649414,517.325684 701.650024,453.999878 z" style=""/>
  <path opacity="1.000000" stroke="none" d=" M305.496155,368.308228 C310.013092,371.482117 310.635345,375.931488 310.655975,380.517029 C310.768127,405.498383 310.901611,430.480133 310.858582,455.461487 C310.812134,482.449341 310.445404,509.436981 310.461761,536.424561 C310.482239,570.229553 310.763123,604.034424 310.892670,637.839478 C310.906036,641.332458 310.805725,644.840027 310.494324,648.317139 C309.867432,655.317078 305.437286,659.709412 298.726349,660.238708 C292.964172,660.693298 287.331665,656.257629 285.550018,650.112305 C284.744232,647.333130 284.650604,644.551880 284.651367,641.719055 C284.660217,608.393250 284.655579,575.067505 284.662689,541.741699 C284.663818,536.500671 283.844238,531.745483 278.212341,529.426880 C271.503143,526.664795 264.762115,530.900940 264.353973,538.176270 C263.907379,546.136719 265.223145,554.160706 263.482422,562.074097 C261.620087,570.540222 257.581116,574.001587 250.352753,573.314758 C243.948944,572.706177 238.778336,566.724182 238.707733,559.250305 C238.564529,544.088379 238.656265,528.924255 238.655136,513.761047 C238.654037,499.097717 238.561905,484.433502 238.693680,469.771332 C238.780670,460.091797 247.927521,453.562073 256.537231,456.848145 C262.438599,459.100586 263.957092,464.212891 264.230530,469.713379 C264.544556,476.030334 264.385468,482.374176 264.318939,488.705139 C264.290100,491.447540 264.841278,494.022827 266.152039,496.372894 C268.060669,499.794891 270.818970,501.887939 275.014984,501.758362 C279.337799,501.624817 281.668701,498.919525 283.216248,495.456177 C284.437073,492.723999 284.692963,489.724152 284.688446,486.672363 C284.636475,451.680389 284.650482,416.688293 284.672882,381.696228 C284.678406,373.085144 288.087372,368.268951 295.206726,366.185669 C298.941925,365.092651 302.050079,366.457062 305.496155,368.308228 z" style=""/>
  <path opacity="1.000000" stroke="none" d=" M361.244934,588.000000 C361.251740,620.316772 361.280823,652.133606 361.250854,683.950378 C361.241882,693.447876 358.277557,697.808289 350.734833,699.845276 C342.947693,701.948181 335.302094,696.583496 334.693085,688.564758 C334.604980,687.404785 334.654602,686.233704 334.654602,685.067749 C334.653198,569.627686 334.676727,454.187561 334.578583,338.747559 C334.574005,333.386597 335.954926,329.267456 340.834595,326.760193 C345.847687,324.184387 350.788666,324.514343 355.512115,327.520966 C360.328064,330.586456 361.190796,335.523285 361.224518,340.628540 C361.319061,354.953796 361.255402,369.280090 361.254669,383.605957 C361.251221,451.570648 361.247925,519.535339 361.244934,588.000000 z" style=""/>
  <path opacity="1.000000" stroke="none" d=" M573.349487,302.000122 C573.350159,312.493713 573.319824,322.487396 573.360535,332.480835 C573.394409,340.799286 578.719849,346.774048 586.049500,346.827667 C593.352478,346.881073 598.404785,341.492249 598.597168,332.977692 C598.792786,324.320892 598.607788,315.656158 598.668640,306.995453 C598.726013,298.833069 603.978455,293.682281 612.148071,293.648468 C620.487915,293.613922 625.331116,298.460815 625.336243,307.042664 C625.361450,349.015717 625.360291,390.988770 625.338074,432.961823 C625.333740,441.177612 620.418762,446.223358 612.479553,446.341705 C604.785522,446.456360 598.769043,440.805908 598.701111,432.949768 C598.567200,417.460876 598.612976,401.969757 598.698608,386.480164 C598.715454,383.432220 598.297180,380.491364 597.412781,377.638214 C595.488098,371.428345 589.931396,368.161011 583.367737,369.191528 C577.186279,370.162018 573.578613,374.389343 573.353577,380.925934 C572.996948,391.285156 568.201538,396.511963 559.189453,396.364288 C551.045349,396.230835 545.698486,390.787323 545.674561,382.297211 C545.611572,359.978394 545.651489,337.659241 545.651855,315.340240 C545.652039,303.347931 545.534851,291.354065 545.692078,279.363800 C545.838257,268.217194 556.428101,261.381134 565.759949,266.302673 C571.220032,269.182281 573.148621,274.241394 573.296997,280.015320 C573.480957,287.172607 573.346313,294.338135 573.349487,302.000122 z" style=""/>
</svg>